<svg width="24" height="24" viewBox="0 0 24 24" fill="none" xmlns="http://www.w3.org/2000/svg">
    <path d="M19.0711 4.92893C15.1658 1.02369 8.83418 1.02369 4.92893 4.92893C2.97631 6.88155 2 9.44078 2 12M4.92893 19.0711C8.83418 22.9763 15.1658 22.9763 19.0711 19.0711C21.0237 17.1184 22 14.5592 22 12M20 2V5.9C20 5.95523 19.9552 6 19.9 6H16M4 22V18.1C4 18.0448 4.04477 18 4.1 18H8M16 10L10.8363 14.6942C10.6456 14.8676 10.3544 14.8676 10.1637 14.6942L8 12.7273" stroke="#8E94A0" stroke-width="2" stroke-linecap="round"/>
</svg>
