<svg width="24" height="24" viewBox="0 0 24 24" fill="none" xmlns="http://www.w3.org/2000/svg">
    <g clip-path="url(#clip0_1495_5174)">
        <path d="M6.5 7.5C6.5 8.05228 6.94772 8.5 7.5 8.5C8.05228 8.5 8.5 8.05228 8.5 7.5H6.5ZM15.5 7.5C15.5 8.05228 15.9477 8.5 16.5 8.5C17.0523 8.5 17.5 8.05228 17.5 7.5H15.5ZM8.72852 23.0048L9.18251 22.1138L8.72852 23.0048ZM7.74524 22.0215L8.63624 21.5675L7.74524 22.0215ZM16.2548 22.0215L15.3638 21.5675L16.2548 22.0215ZM15.2715 23.0048L14.8175 22.1138L15.2715 23.0048ZM15.2715 14.4952L14.8175 15.3862L15.2715 14.4952ZM16.2548 15.4785L15.3638 15.9325L16.2548 15.4785ZM8.72852 14.4952L9.18251 15.3862L8.72852 14.4952ZM7.74524 15.4785L8.63624 15.9325L7.74524 15.4785ZM16.8514 10.2265C16.2991 10.2265 15.8514 10.6742 15.8514 11.2265C15.8514 11.7788 16.2991 12.2265 16.8514 12.2265V10.2265ZM17.2733 12.2265C17.8256 12.2265 18.2733 11.7788 18.2733 11.2265C18.2733 10.6742 17.8256 10.2265 17.2733 10.2265V12.2265ZM16.8514 10.6484C16.2991 10.6484 15.8514 11.0961 15.8514 11.6484C15.8514 12.2007 16.2991 12.6484 16.8514 12.6484V10.6484ZM17.2733 12.6484C17.8256 12.6484 18.2733 12.2007 18.2733 11.6484C18.2733 11.0961 17.8256 10.6484 17.2733 10.6484V12.6484ZM5.25 8.5H18.75V6.5H5.25V8.5ZM20 9.75V15.375H22V9.75H20ZM4 15.375V9.75H2V15.375H4ZM18.75 16.625H15.6V18.625H18.75V16.625ZM8.4 16.625H5.25V18.625H8.4V16.625ZM2 15.375C2 17.1699 3.45507 18.625 5.25 18.625V16.625C4.55964 16.625 4 16.0654 4 15.375H2ZM20 15.375C20 16.0654 19.4404 16.625 18.75 16.625V18.625C20.5449 18.625 22 17.1699 22 15.375H20ZM18.75 8.5C19.4404 8.5 20 9.05964 20 9.75H22C22 7.95507 20.5449 6.5 18.75 6.5V8.5ZM5.25 6.5C3.45507 6.5 2 7.95507 2 9.75H4C4 9.05964 4.55964 8.5 5.25 8.5V6.5ZM8.5 7.5V5.25H6.5V7.5H8.5ZM9.75 4H14.25V2H9.75V4ZM15.5 5.25V7.5H17.5V5.25H15.5ZM14.25 4C14.9404 4 15.5 4.55964 15.5 5.25H17.5C17.5 3.45507 16.0449 2 14.25 2V4ZM8.5 5.25C8.5 4.55964 9.05964 4 9.75 4V2C7.95507 2 6.5 3.45507 6.5 5.25H8.5ZM11.1 15.25H12.9V13.25H11.1V15.25ZM15.5 17.85V19.65H17.5V17.85H15.5ZM12.9 22.25H11.1V24.25H12.9V22.25ZM8.5 19.65V17.85H6.5V19.65H8.5ZM11.1 22.25C10.4534 22.25 10.0287 22.2492 9.70364 22.2227C9.39029 22.1971 9.25869 22.1526 9.18251 22.1138L8.27453 23.8958C8.67965 24.1022 9.10374 24.1803 9.54077 24.216C9.96613 24.2508 10.4864 24.25 11.1 24.25V22.25ZM6.5 19.65C6.5 20.2636 6.49922 20.7839 6.53398 21.2092C6.56968 21.6463 6.64781 22.0703 6.85423 22.4755L8.63624 21.5675C8.59742 21.4913 8.55294 21.3597 8.52733 21.0464C8.50078 20.7213 8.5 20.2966 8.5 19.65H6.5ZM9.18251 22.1138C8.94731 21.9939 8.75608 21.8027 8.63624 21.5675L6.85423 22.4755C7.16582 23.087 7.66301 23.5842 8.27453 23.8958L9.18251 22.1138ZM15.5 19.65C15.5 20.2966 15.4992 20.7213 15.4727 21.0464C15.4471 21.3597 15.4026 21.4913 15.3638 21.5675L17.1458 22.4755C17.3522 22.0703 17.4303 21.6463 17.466 21.2092C17.5008 20.7839 17.5 20.2636 17.5 19.65H15.5ZM12.9 24.25C13.5136 24.25 14.0339 24.2508 14.4592 24.216C14.8963 24.1803 15.3204 24.1022 15.7255 23.8958L14.8175 22.1138C14.7413 22.1526 14.6097 22.1971 14.2964 22.2227C13.9713 22.2492 13.5466 22.25 12.9 22.25V24.25ZM15.3638 21.5675C15.2439 21.8027 15.0527 21.9939 14.8175 22.1138L15.7255 23.8958C16.337 23.5842 16.8342 23.087 17.1458 22.4755L15.3638 21.5675ZM12.9 15.25C13.5466 15.25 13.9713 15.2508 14.2964 15.2773C14.6097 15.3029 14.7413 15.3474 14.8175 15.3862L15.7255 13.6042C15.3204 13.3978 14.8963 13.3197 14.4592 13.284C14.0339 13.2492 13.5136 13.25 12.9 13.25V15.25ZM17.5 17.85C17.5 17.2364 17.5008 16.7161 17.466 16.2908C17.4303 15.8537 17.3522 15.4296 17.1458 15.0245L15.3638 15.9325C15.4026 16.0087 15.4471 16.1403 15.4727 16.4536C15.4992 16.7787 15.5 17.2034 15.5 17.85H17.5ZM14.8175 15.3862C15.0527 15.5061 15.2439 15.6973 15.3638 15.9325L17.1458 15.0245C16.8342 14.413 16.337 13.9158 15.7255 13.6042L14.8175 15.3862ZM11.1 13.25C10.4864 13.25 9.96613 13.2492 9.54077 13.284C9.10374 13.3197 8.67965 13.3978 8.27453 13.6042L9.18251 15.3862C9.25869 15.3474 9.39029 15.3029 9.70364 15.2773C10.0287 15.2508 10.4534 15.25 11.1 15.25V13.25ZM8.5 17.85C8.5 17.2034 8.50078 16.7787 8.52733 16.4536C8.55294 16.1403 8.59742 16.0087 8.63624 15.9325L6.85423 15.0245C6.64781 15.4296 6.56968 15.8537 6.53398 16.2908C6.49922 16.7161 6.5 17.2364 6.5 17.85H8.5ZM8.27453 13.6042C7.663 13.9158 7.16582 14.413 6.85423 15.0245L8.63624 15.9325C8.75608 15.6973 8.94731 15.5061 9.18251 15.3862L8.27453 13.6042ZM16.625 11.4375C16.625 11.1959 16.8209 11 17.0625 11V13C17.9254 13 18.625 12.3004 18.625 11.4375H16.625ZM17.0625 11C17.3041 11 17.5 11.1959 17.5 11.4375H15.5C15.5 12.3004 16.1996 13 17.0625 13V11ZM17.5 11.4375C17.5 11.6791 17.3041 11.875 17.0625 11.875V9.875C16.1996 9.875 15.5 10.5746 15.5 11.4375H17.5ZM17.0625 11.875C16.8209 11.875 16.625 11.6791 16.625 11.4375H18.625C18.625 10.5746 17.9254 9.875 17.0625 9.875V11.875ZM16.8514 12.2265H17.2733V10.2265H16.8514V12.2265ZM16.8514 12.6484H17.2733V10.6484H16.8514V12.6484Z" fill="white"/>
    </g>
    <defs>
        <clipPath id="clip0_1495_5174">
            <rect width="24" height="24" fill="white"/>
        </clipPath>
    </defs>
</svg>
