<svg version="1.1" xmlns="http://www.w3.org/2000/svg" width="48" height="48">
    <path d="M0 0 C1.08152344 -0.01417969 2.16304687 -0.02835937 3.27734375 -0.04296875 C6.0625 0.1875 6.0625 0.1875 8.0625 2.1875 C8.75998583 3.50497324 9.43209957 4.83664193 10.0625 6.1875 C10.949375 6.06375 11.83625 5.94 12.75 5.8125 C16.0625 6.1875 16.0625 6.1875 18.9375 8.75 C21.4697569 12.19419507 21.61342319 14.93752112 21.0625 19.1875 C20.0625 21.625 20.0625 21.625 19.0625 23.1875 C19.7225 23.8475 20.3825 24.5075 21.0625 25.1875 C21.61369398 29.2295892 21.20953535 30.93611698 19.125 34.5 C17.0625 37.1875 17.0625 37.1875 16.0625 38.1875 C13.72952567 38.22842937 11.39544775 38.22991723 9.0625 38.1875 C8.753125 38.991875 8.44375 39.79625 8.125 40.625 C7.0625 43.1875 7.0625 43.1875 6.0625 44.1875 C4.08630553 44.31264928 2.10511827 44.3632276 0.125 44.375 C-0.95652344 44.38917969 -2.03804687 44.40335938 -3.15234375 44.41796875 C-5.9375 44.1875 -5.9375 44.1875 -7.9375 42.1875 C-8.63498583 40.87002676 -9.30709957 39.53835807 -9.9375 38.1875 C-10.824375 38.31125 -11.71125 38.435 -12.625 38.5625 C-15.9375 38.1875 -15.9375 38.1875 -18.8125 35.625 C-21.3447569 32.18080493 -21.48842319 29.43747888 -20.9375 25.1875 C-19.9375 22.75 -19.9375 22.75 -18.9375 21.1875 C-19.5975 20.5275 -20.2575 19.8675 -20.9375 19.1875 C-21.48869398 15.1454108 -21.08453535 13.43888302 -19 9.875 C-16.9375 7.1875 -16.9375 7.1875 -15.9375 6.1875 C-13.60452567 6.14657063 -11.27044775 6.14508277 -8.9375 6.1875 C-8.628125 5.383125 -8.31875 4.57875 -8 3.75 C-6.16395015 -0.67812023 -4.64193988 0.02759774 0 0 Z M-2.9375 4.1875 C-3.2675 5.156875 -3.5975 6.12625 -3.9375 7.125 C-5.9375 10.1875 -5.9375 10.1875 -7.84765625 10.703125 C-9.87755326 10.86522204 -11.90752434 11.02639082 -13.9375 11.1875 C-16.20963937 13.8503692 -16.20963937 13.8503692 -15.625 16 C-15.398125 16.721875 -15.17125 17.44375 -14.9375 18.1875 C-14.25 21.25 -14.25 21.25 -13.9375 24.1875 C-14.5975 25.1775 -15.2575 26.1675 -15.9375 27.1875 C-15.65475862 30.49836259 -15.65475862 30.49836259 -13.9375 33.1875 C-12.65875 33.249375 -11.38 33.31125 -10.0625 33.375 C-7.8828125 33.6015625 -7.8828125 33.6015625 -5.9375 34.1875 C-3.9375 37.25 -3.9375 37.25 -2.9375 40.1875 C-0.9575 40.1875 1.0225 40.1875 3.0625 40.1875 C3.3925 39.218125 3.7225 38.24875 4.0625 37.25 C6.0625 34.1875 6.0625 34.1875 7.97265625 33.671875 C10.00255326 33.50977796 12.03252434 33.34860918 14.0625 33.1875 C16.33463937 30.5246308 16.33463937 30.5246308 15.75 28.375 C15.4096875 27.2921875 15.4096875 27.2921875 15.0625 26.1875 C14.375 23.125 14.375 23.125 14.0625 20.1875 C14.7225 19.1975 15.3825 18.2075 16.0625 17.1875 C15.77975862 13.87663741 15.77975862 13.87663741 14.0625 11.1875 C12.78375 11.125625 11.505 11.06375 10.1875 11 C8.0078125 10.7734375 8.0078125 10.7734375 6.0625 10.1875 C4.0625 7.125 4.0625 7.125 3.0625 4.1875 C1.0825 4.1875 -0.8975 4.1875 -2.9375 4.1875 Z " fill="white" transform="translate(23.9375,1.8125)"/>
    <path d="M0 0 C4.09131007 0.9331058 5.57237355 2.17306228 8.2265625 5.5078125 C9.21130245 9.38968593 8.98565864 12.73658817 7.40625 16.421875 C5.7423406 18.87701405 3.98318623 20.31587486 1.1015625 21.046875 C-2.87023154 21.30182124 -6.00961232 20.82464662 -9.3359375 18.5703125 C-12.17347726 15.00519845 -12.62351797 13.18385855 -12.28125 8.734375 C-10.77250663 2.11911562 -6.6516207 -0.51166313 0 0 Z M-2.7734375 4.5078125 C-4.4234375 6.1578125 -6.0734375 7.8078125 -7.7734375 9.5078125 C-7.13421785 11.98408349 -7.13421785 11.98408349 -5.7734375 14.5078125 C-3.24970849 15.86859285 -3.24970849 15.86859285 -0.7734375 16.5078125 C0.8765625 14.8578125 2.5265625 13.2078125 4.2265625 11.5078125 C3.58734285 9.03154151 3.58734285 9.03154151 2.2265625 6.5078125 C-0.29716651 5.14703215 -0.29716651 5.14703215 -2.7734375 4.5078125 Z " fill="white" transform="translate(25.7734375,13.4921875)"/>
</svg>

